<?xml version="1.0" encoding="UTF-8"?>
<svg id="Layer_1" xmlns="http://www.w3.org/2000/svg" xmlns:xlink="http://www.w3.org/1999/xlink" version="1.1" viewBox="0 0 512 512">
  <!-- Generator: Adobe Illustrator 30.4.0, SVG Export Plug-In . SVG Version: 2.1.3 Build 103)  -->
  <defs>
    <style>
      .st0 {
        fill: url(#linear-gradient);
      }

      .st1 {
        fill: #fff;
      }
    </style>
    <linearGradient id="linear-gradient" x1="255.75" y1="251.92" x2="247.5" y2="-255.44" gradientUnits="userSpaceOnUse">
      <stop offset="0" stop-color="#000"/>
      <stop offset=".83" stop-color="#b5b5b5"/>
      <stop offset=".87" stop-color="#fff"/>
    </linearGradient>
  </defs>
  <rect class="st0" x="-.18" y=".05" width="512" height="512" rx="256" ry="256"/>
  <g>
    <path class="st1" d="M192.53,151.74l31.9-30.4c.29-.27.67-.42,1.06-.43l61.09-.09c.4,0,.78.15,1.07.43,10.75,10.33,21.91,20.3,32.19,31.12.27.29.42.66.42,1.06v27.45l-.47.47h-26.02l-.47.47v12.87c0,.53.26,1.07.74,1.31.02,0,.03.01.04.01h24.64c.85,0,1.54.69,1.54,1.53v19.83l-.47.47h-26.02l-.47.47v13.41l.47.47h26.02l.47.47v19.83c0,.85-.69,1.53-1.54,1.53h-24.95l-.47.47v13.72l.47.47h26.02l.47.47v33.03c0,.42-.17.82-.48,1.11l-34.35,32.68c-.28.26-.64.41-1.02.43-18.6.56-37.39.27-56.05.14-.39,0-.76-.15-1.04-.41l-34.79-32.52c-.31-.29-.49-.69-.49-1.12v-32.27c0-.85.69-1.53,1.54-1.53h22.78c1.28,0,2.32-1.04,2.32-2.31v-11.88l-.47-.47h-26.02c-.16,0-.52-.51-.48-.78l.3-19.55c.01-.84.7-1.51,1.54-1.51h24.66l.47-.47v-13.41l-.47-.47h-24.64c-.85,0-1.54-.69-1.54-1.53v-18.79c0-.84.68-1.52,1.52-1.53l23.6-.28c.84,0,1.52-.69,1.52-1.53v-12.36l-.47-.47h-24.64c-.85,0-1.54-.69-1.54-1.53v-26.97c0-.42.17-.82.47-1.11Z"/>
    <path class="st1" d="M230.93,381.56v-14.19l.47-.4c.13,0,.24.24.31.24h46.08c.85,0,.16,2.11.14,2.64-.07,2.32-.07,4.87,0,7.2.04,1.47.92,3.34-.14,4.51h-8.78l-4.23,9.51-20.47.1c-.34-.08-.48-.33-.67-.58-1.52-2.11-1.98-6.83-3.78-9.03h-8.93Z"/>
    <rect class="st1" x="224.66" y="344.14" width="59.56" height="14.34"/>
  </g>
</svg>