<?xml version="1.0" encoding="UTF-8"?>
<svg id="Layer_1" xmlns="http://www.w3.org/2000/svg" version="1.1" viewBox="0 0 484.56 527.28">
  <!-- Generator: Adobe Illustrator 30.0.0, SVG Export Plug-In . SVG Version: 2.1.1 Build 123)  -->
  <path d="M153.77,107.98l48.83-46.77c.44-.42,1.02-.65,1.63-.65l93.5-.13c.61,0,1.19.24,1.63.66,16.45,15.9,33.54,31.23,49.27,47.87.42.44.65,1.02.65,1.63v42.24l-.72.72h-39.82l-.72.72v19.8c0,.82.4,1.64,1.13,2.01.03.01.05.02.07.02h37.71c1.3,0,2.35,1.05,2.35,2.35v30.51l-.72.72h-39.82l-.72.72v20.63l.72.72h39.82l.72.72v30.51c0,1.3-1.05,2.35-2.35,2.35h-38.18l-.72.72v21.11l.72.72h39.82l.72.72v50.81c0,.64-.26,1.26-.73,1.7l-52.56,50.28c-.42.4-.98.64-1.56.66-28.46.87-57.22.42-85.78.22-.59,0-1.16-.23-1.59-.64l-53.25-50.03c-.47-.45-.74-1.07-.74-1.72v-49.64c0-1.3,1.05-2.35,2.35-2.35h34.87c1.95,0,3.55-1.6,3.55-3.55v-18.28l-.72-.72h-39.82c-.24,0-.79-.79-.74-1.19l.46-30.07c.02-1.29,1.07-2.32,2.35-2.32h37.74l.72-.72v-20.63l-.72-.72h-37.71c-1.3,0-2.35-1.05-2.35-2.35v-28.9c0-1.29,1.04-2.34,2.33-2.35l36.13-.43c1.29-.02,2.33-1.07,2.33-2.35v-19.02l-.72-.72h-37.71c-1.3,0-2.35-1.05-2.35-2.35v-41.5c0-.64.26-1.26.73-1.7Z"/>
  <path d="M212.53,461.55v-21.83l.72-.62c.19-.01.36.38.48.38h70.53c1.3,0,.24,3.24.22,4.06-.11,3.58-.1,7.5,0,11.08.06,2.27,1.41,5.14-.22,6.93h-13.43l-6.48,14.64-31.33.15c-.52-.12-.74-.5-1.02-.9-2.32-3.25-3.03-10.51-5.79-13.89h-13.67Z"/>
  <rect x="202.94" y="403.98" width="91.15" height="22.07"/>
</svg>